<svg xmlns="http://www.w3.org/2000/svg" viewBox="0 0 190.97 190.97"><defs><style>.cls-1{fill:none;stroke:#00aeef;stroke-miterlimit:10;stroke-width:2px;}</style></defs><g id="Layer_2" data-name="Layer 2"><g id="Layer_1-2" data-name="Layer 1"><path class="cls-1" d="M50.13,95.74c-.89.74-1.34,1.19-1.34,1.34H46a5.38,5.38,0,0,0-2.4,1.28c-1.15.85-1.73,1.43-1.73,1.73s.88,1.13,2.62,2.51,2.85,2.06,3.3,2.06q2,0,4.79-9.15L51.47,96Z"/><path class="cls-1" d="M85.9,93.87A8.85,8.85,0,0,0,78.63,97a12.52,12.52,0,0,0-2.6,8.19c0,3.7,1,6.62,2.87,8.78a9.37,9.37,0,0,0,7.32,3.23,9.13,9.13,0,0,0,7.43-3.36,12.85,12.85,0,0,0,2.77-8.49,11.75,11.75,0,0,0-3-8.29A9.74,9.74,0,0,0,85.9,93.87Z"/><path class="cls-1" d="M95.48,1A94.49,94.49,0,1,0,190,95.48,94.48,94.48,0,0,0,95.48,1Zm23.44,166a4,4,0,0,1-1.08-.17,5.81,5.81,0,0,0-1.79-.16,6,6,0,0,0-1.6.24,6.78,6.78,0,0,1-1.12.21,1,1,0,0,1-.82-.33,1.19,1.19,0,0,1-.38-.72c0-.26-.1-.38-.18-.37l-.4.17a13.76,13.76,0,0,1-6.45,2.33,9.51,9.51,0,0,1-6.82-2.74A9.11,9.11,0,0,1,98,151.87a10.17,10.17,0,0,1,7-2.9,8.22,8.22,0,0,1,3.51.76c1.21.54,1.83,1.17,1.84,1.85a.69.69,0,0,1-.23.56.78.78,0,0,1-.54.23,6,6,0,0,1-1.76-.58,6.32,6.32,0,0,0-2.57-.57,5.46,5.46,0,0,0-4.29,2.22,7.76,7.76,0,0,0-1.67,5.15,9.05,9.05,0,0,0,1.73,4.95,5,5,0,0,0,4.44,2.38,9.24,9.24,0,0,0,3.43-.91,4.2,4.2,0,0,0,2.42-2.28,13,13,0,0,0,.44-4.29l-.47-21.84a4.64,4.64,0,0,0-.77-2.91,4.5,4.5,0,0,0-2.09-1.17,8.42,8.42,0,0,1-1.66-.58.75.75,0,0,1-.33-.66.68.68,0,0,1,.37-.58,1.91,1.91,0,0,1,1.06-.28,10.51,10.51,0,0,1,1.2.11,11.2,11.2,0,0,0,1.49.09,14.32,14.32,0,0,0,2-.15,7.65,7.65,0,0,1,1-.11,1.33,1.33,0,0,1,1.24.49,3,3,0,0,1,.33,1.43c0,1.11,0,2,.07,2.68s.06,1.28.07,1.8L115.9,161a4.86,4.86,0,0,0,.56,2.27,3,3,0,0,0,1.86,1.45,5.69,5.69,0,0,1,1.53.63.55.55,0,0,1,.21.45C120.08,166.57,119.7,167,118.92,167ZM104.05,95.22a46.84,46.84,0,0,0-3,3.62,12.94,12.94,0,0,1,1.82,6.72,14,14,0,0,1-4.77,11c-3.19,2.84-7.44,4.25-12.78,4.25A16.91,16.91,0,0,1,74,116.48a13.64,13.64,0,0,1-5-10.77,15.09,15.09,0,0,1,4.43-10.77q4.44-4.64,12.8-4.64A16.74,16.74,0,0,1,97.9,94.91a19.94,19.94,0,0,1,1.8,1.9l.23.3q1-1.45,2.47-3.7a3.82,3.82,0,0,1,1.89-1.86c.19-.08,1.21-.36,3.08-.82a5.28,5.28,0,0,1,1.13-.16.83.83,0,0,1,.88.77,16.78,16.78,0,0,1,.13,2.79,78.27,78.27,0,0,1-2.79,22.13q7.4-7.29,10.08-14.16c.2-2.56.43-4.39.63-5.5a15.12,15.12,0,0,1,1.7-4.77c.65-1.16,1.37-1.74,2.15-1.74a6.26,6.26,0,0,1,3,1.42q1.14.76,1.14,1.41a10.87,10.87,0,0,1-.65,2.15,23.59,23.59,0,0,1-3,5.85,39.87,39.87,0,0,0-.38,5.55A50.51,50.51,0,0,0,123,118.8c.29,1.19.68,1.78,1.14,1.78s1.13-.7,1.85-2.09c4-7.78,6.5-13.62,7.45-17.57-.36-.45-.72-.94-1.1-1.47a2.81,2.81,0,0,1-.57-1.67,5.67,5.67,0,0,1,.41-1.91c.27-1.24.54-2.46.81-3.67.44-1.6,1.14-2.39,2.15-2.39A7.34,7.34,0,0,1,138.43,91a2.56,2.56,0,0,1,1.22,2.35,10.21,10.21,0,0,1-.94,3.59c-.46,1.09-.91,2.18-1.37,3.29.24.29,1,1,2.18,2.14a1.55,1.55,0,0,1,.57,1.13c0,.81-.36,1.21-1.09,1.21a6.11,6.11,0,0,1-1.62-.89,7.43,7.43,0,0,0-1.09-.64q-5.08,14-8.7,19c-.92,1.3-1.86,2-2.83,2a13.21,13.21,0,0,1-2.83-.69,6.77,6.77,0,0,1-2.3-1,5.62,5.62,0,0,1-.94-2.27,51.05,51.05,0,0,1-1.82-11.93c-1.32,1.88-3.52,4.68-6.63,8.37q-4.41,5.3-5.39,6.72a1.5,1.5,0,0,1-1.36.76c-.76,0-1.95-.62-3.56-1.86-.4-.29-.61-.58-.61-.84s.55-1,1.66-1.87a63.66,63.66,0,0,0,2.38-10.27,68.86,68.86,0,0,0,1-10.56A16.76,16.76,0,0,0,104.05,95.22ZM134.14,152a5.82,5.82,0,0,0-4.61-1.6,6.65,6.65,0,0,0-4.3,2.11,7.13,7.13,0,0,0-2.13,5.72,6.45,6.45,0,0,0,2.47,4.79,7.75,7.75,0,0,0,5.36,2,10.24,10.24,0,0,0,4.8-1.5A3.47,3.47,0,0,1,137,163a.93.93,0,0,1,.73.24.81.81,0,0,1,.28.64c0,.62-.9,1.4-2.75,2.31a13.44,13.44,0,0,1-5.75,1.45A10.11,10.11,0,0,1,122,164.8a9.79,9.79,0,0,1-3.15-7.07,8.15,8.15,0,0,1,3.16-6.56,11.27,11.27,0,0,1,7.31-2.85c3.54-.08,6.22.77,8,2.54a9,9,0,0,1,2.78,6.45c0,.54-.12.88-.39,1a3.76,3.76,0,0,1-1.48.23l-11.65.25c-1,0-1.43-.32-1.44-1s.47-1,1.45-1l8.1-.18a1.21,1.21,0,0,0,.79-.21,1,1,0,0,0,.18-.74A5.35,5.35,0,0,0,134.14,152Zm18.76-1.87a5.57,5.57,0,0,1-1,1,14,14,0,0,0-4.55,6.06A15.76,15.76,0,0,0,146,163.1a2.52,2.52,0,0,0,.31,1.47,2.64,2.64,0,0,0,1.43.63,3.31,3.31,0,0,1,1.45.54.92.92,0,0,1,.35.71c0,.5-.28.76-.86.77a12.22,12.22,0,0,1-2-.18,14.71,14.71,0,0,0-2.72-.17,9.59,9.59,0,0,0-2,.26,10.56,10.56,0,0,1-1.27.27,2.35,2.35,0,0,1-1.14-.25.78.78,0,0,1-.45-.68.8.8,0,0,1,.23-.56,4.3,4.3,0,0,1,1.35-.65,3,3,0,0,0,1.36-.78,6.11,6.11,0,0,0,.19-2.4l-.16-7.69a2.63,2.63,0,0,0-.37-1.31,2.24,2.24,0,0,0-1.39-.87,3.59,3.59,0,0,1-1.24-.51.87.87,0,0,1-.2-.53c0-.57.39-.86,1.18-.87a5.63,5.63,0,0,1,1.11.11,9.57,9.57,0,0,0,1.09.1,5.76,5.76,0,0,0,.83-.12,7.47,7.47,0,0,1,1.36-.13c.92,0,1.39.94,1.44,2.88l0,1.25.12.71a12.11,12.11,0,0,0,1.14-2.43,11.44,11.44,0,0,1,2-3.48,3.15,3.15,0,0,1,2.15-1.07,2.33,2.33,0,0,1,1.33.28.82.82,0,0,1,.45.68A1.58,1.58,0,0,1,152.9,150.15Zm14.86-91.91a6.05,6.05,0,0,0-1.34,2.18A2.73,2.73,0,0,1,164.74,62a4.39,4.39,0,0,0-2.18,2.28,4.22,4.22,0,0,1-2.4,2.29,7.93,7.93,0,0,0-3,2A4.42,4.42,0,0,1,154,70l-12,3.57-1.34-.45a6.54,6.54,0,0,1-5.92,3.24,27.36,27.36,0,0,0-4.48.78l-2.23.56-1.79-.23-4.14.79a9.45,9.45,0,0,0-2.79.83,4.47,4.47,0,0,1-2.24.51l-3,1.56a.92.92,0,0,1-.67.22,1.77,1.77,0,0,1-1.12-.22l-1.57-.45a4.51,4.51,0,0,0-1.62.78,2.26,2.26,0,0,1-1.39.56l-1.35-1.12-2.12,1.79a23.22,23.22,0,0,0-3.58,1,5.7,5.7,0,0,0-1.9-.78l-3.91,1.68-2.23-.67-.23.67a5.62,5.62,0,0,0-3.18,1.11,5.16,5.16,0,0,1-2.74,1.12,2.54,2.54,0,0,1-1.68-.89,1.28,1.28,0,0,1-.89-.45,6.22,6.22,0,0,0-1.68,1.62,5.39,5.39,0,0,1-2.46,1.62l-2.68-.79c0,.23-.71.62-2.12,1.18s-2.17,1-2.24,1.39l-1.12,1.56c-.52,1.27-.93,2.31-1.23,3.13a5.66,5.66,0,0,1-1.12,1.95,7.08,7.08,0,0,0-1.23,2.51,14.86,14.86,0,0,1-2,3.91l-.22,1.34a13.47,13.47,0,0,1-2,2l-2.57,4.79A5.48,5.48,0,0,0,60.12,114q0,1.67,3,3.23l9.19,7.81A31.33,31.33,0,0,1,85.2,122.5a35.14,35.14,0,0,1,10.35,1.43c.46.14.91.29,1.34.44a21.75,21.75,0,0,1,6.15,3.1c1.56,1.17,2.46,2.11,2.69,2.81a1,1,0,0,1,.06.34.34.34,0,0,1,0,.1c0,.82,0,1.57,0,2.26l0,.67c0,.6-.06,1-.07,1.32s0,.26,0,.33a5.74,5.74,0,0,0,.29,1.45,7.48,7.48,0,0,1,.28,1.83c0,.88-.54,1.32-1.64,1.32a1.58,1.58,0,0,1-1-.47,10.32,10.32,0,0,1-1.53-2.7,19.93,19.93,0,0,0-4.58-6.81,13.81,13.81,0,0,0-1.19-.91q-4.11-2.8-10.79-2.79a19.13,19.13,0,0,0-11.81,3.63,18.45,18.45,0,0,0-3.58,3.59,20.65,20.65,0,0,0-1.59,2.39q-3.92,6.63-3.89,16.2,0,12.39,6,19.57t16.11,7.15A30.83,30.83,0,0,0,94.86,177a29.63,29.63,0,0,0,11-6.8,3.39,3.39,0,0,1,1.86-1.09,1.41,1.41,0,0,1,1.05.46,1.26,1.26,0,0,1,.45.82c0,.94-1.07,2.42-3.21,4.47a27.7,27.7,0,0,1-8.42,5.26,28.2,28.2,0,0,1-11,2.21,31.33,31.33,0,0,1-16.28-4.06,27,27,0,0,1-10.61-11.33A33.1,33.1,0,0,1,56,151.81a31.22,31.22,0,0,1,3.57-14.71,26.92,26.92,0,0,1,4-5.76c.44-.47.89-.93,1.37-1.38l-.29.17A37.35,37.35,0,0,0,61.6,127c-1.08-.93-1.66-1.66-1.73-2.18s-.78-1.15-2.12-1.9a8.18,8.18,0,0,1-1.68,2.12,5.33,5.33,0,0,0-1.34,1.79l-.44.67A4.79,4.79,0,0,0,52.73,131q-1.68,1.33-2.13,4.8l-5,11.38-.89,4.13-.66,7c-.23,2-1.08,3-2.56,3l-2.22.22a16.36,16.36,0,0,0-4.16-.83c-2.18-.26-4-2.44-5.38-6.53A11.43,11.43,0,0,0,28.43,152a5.12,5.12,0,0,1-1.06-2.79,10.45,10.45,0,0,1,.67-2.9l.45-2.57q0-.67,2.79-6.36l5.9-11.27,2.9-4.35a14.4,14.4,0,0,0,1.23-3.41,10.64,10.64,0,0,1,2.06-4.18,4.94,4.94,0,0,0,1.4-2.46q0-1.34-2.07-2.67c-1.37-.9-2.14-1.75-2.28-2.57L40,105.33q-5.91-3.45-5.91-7.81,0-2.34,5.91-5.86t8-4A15,15,0,0,0,52,86.14l1.9-.45,1.56-1.34a29.47,29.47,0,0,1,3.29-.83q2-.39,3.34-4.58t2.51-4.85a62.41,62.41,0,0,0,3-6.92c.15-.3.58-1,1.28-2.07a21.41,21.41,0,0,0,2.17-5.35c.74-2.49,1.26-3.74,1.56-3.74a7.18,7.18,0,0,0,1.78-.45l-1.11-3c0-.3.29-.74.89-1.34a7,7,0,0,1-1.56-4.57q0-4.37,6.12-4.36c.74,0,2.22.66,4.45,2s3.42,2.25,3.57,2.84a11.3,11.3,0,0,0,1.45,2.85,6.64,6.64,0,0,1,1.22,3.29q0,4.35-1.45,5.69c-1,.89-2,2.87-3,5.91l-3,8.49-.45,2.12-.56.89,2.79-.67c.6-1.64,3.13-2.57,7.61-2.79l7-2.23h2.12l6.83-1.9c.29,0,1.38-.15,3.24-.45h.67l1.34-.22a2.59,2.59,0,0,1,.9.89h.44c.82,0,1.27-.48,1.35-1.45s1.15-1.45,3.24-1.45a1.08,1.08,0,0,1,.84.56,1.08,1.08,0,0,0,.84.56,2.26,2.26,0,0,1,1.73-1.73,7.78,7.78,0,0,1,2.18-.5l1.79.22a.9.9,0,0,1-.22-.67q0-1,6.82-2.12a9.07,9.07,0,0,0,3-1.67q1.11-1,7-2.91l6.71-2c2.76-.9,4.66-3.57,5.71-8-.16-.15-.82-1.15-2-3,0-.15-.56-.22-1.68-.22a7.4,7.4,0,0,0-1.56-1.06,12.31,12.31,0,0,1-2.57-2.07l-1.33.45a14.15,14.15,0,0,0-3.63-1.4,12,12,0,0,1-4.41-2.29,3.94,3.94,0,0,1-1.12.45,15.87,15.87,0,0,1-2.45-1.12l-3-1.33h-1.79l-.78-.23c-.45-.52-.82-.78-1.12-.78l-1.11.22a2.48,2.48,0,0,1-1.12.23h-1.89a7.39,7.39,0,0,1-1.79-1.12h-3.68l-2,.45c-.3,0-.78-.3-1.45-.89l-2,.44-2-.89-3,.45a2.73,2.73,0,0,0-1.34-.67l-8.93.89a1,1,0,0,1-.78-.45,2.07,2.07,0,0,0-1.06-.67,5.41,5.41,0,0,1-1.62-.89,9.22,9.22,0,0,1-4.57,1.34l-3.46-.45-.67.23h-.45a18.25,18.25,0,0,1-2-.45.9.9,0,0,1-.22.67l-1.68-.45-6.13,1.12H74.3L73.19,34a3.79,3.79,0,0,0-1.28.33,4,4,0,0,1-1.29.34l-2.45-.23-1.9.45-2.68-.22-2.34,1.67H60.8a1.79,1.79,0,0,1-1-.39,1.89,1.89,0,0,0-.78-.39l-1.68.33L56,35.59c-.3,0-.89.71-1.78,2.12,0,.15-.15.22-.45.22h-.22l-1.68-.45c-.29,0-.89.53-1.78,1.57-1.42.52-2.79,1.08-4.13,1.67a7.41,7.41,0,0,1-2.68,2.68l-1.9.89-.22,1.23q-.33,1.9-3.12,3.79a9.83,9.83,0,0,1-5.58,1.9q-7,0-7-6.69c0-1.57,1.21-3.48,3.62-5.75A20.2,20.2,0,0,1,38.76,34a42.49,42.49,0,0,0,8.71-2.63,27.07,27.07,0,0,1,8.09-1.95,2.54,2.54,0,0,0,1.78.89,2.09,2.09,0,0,0,2-1c.37-.67,1.23-.86,2.57-.56h.56l5.91-1.56,1.79.67a1.93,1.93,0,0,0,1.06-.45,4.41,4.41,0,0,1,1.5-.67h1.79l2.12-.44a12.81,12.81,0,0,0,2.9-1l1.9.22a36,36,0,0,0,7-1.11,46,46,0,0,1,7.37-1.23,27.71,27.71,0,0,0,3.68-.33,12.93,12.93,0,0,1,1.39-.23,3.32,3.32,0,0,1,1.68.67A3.21,3.21,0,0,0,104,24c.29,0,2.38-.44,6.25-1.34h.67l5,1.12a7.68,7.68,0,0,1,2.68-1.12,5.26,5.26,0,0,1,3.9,1.57l2.12-.9,1.12.23a13.69,13.69,0,0,0,2-.23h.89a6.83,6.83,0,0,1,1.67.23.64.64,0,0,0,.45.22,5.85,5.85,0,0,0,1.79-.22H134l4.79,1.11,2-.22a4.71,4.71,0,0,1,1.34.67l1.23-.23a28.21,28.21,0,0,0,4,2.13,10.13,10.13,0,0,1,1.67-.45h.22a12.22,12.22,0,0,1,2.24,1.34l3.23,1.56.89-.45a19.12,19.12,0,0,1,3.22,1.79l.89,1.9a27.71,27.71,0,0,1,3,1.78A9.66,9.66,0,0,0,164.1,37v.89c0,.15.57.69,1.72,1.62s1.72,1.62,1.72,2.06c0,.15-.07.67-.22,1.57v.22a5.53,5.53,0,0,0,.78,1.45,5.31,5.31,0,0,1,.78,2.9l-.23,1.56.23,1.45ZM94.55,158.8a8.83,8.83,0,0,1-2.85,7,11.54,11.54,0,0,1-8,2.84,10.61,10.61,0,0,1-7.2-2.56,8.53,8.53,0,0,1-3.3-6.7,9.48,9.48,0,0,1,2.64-6.82c1.81-2,4.47-3,8-3.09a10.56,10.56,0,0,1,7.43,2.74A8.88,8.88,0,0,1,94.55,158.8Z"/><path class="cls-1" d="M83.71,151.68a5.57,5.57,0,0,0-4.52,2.1A7.84,7.84,0,0,0,77.67,159a7.93,7.93,0,0,0,1.92,5.46,5.84,5.84,0,0,0,4.64,1.94,5.72,5.72,0,0,0,4.62-2.21,8.08,8.08,0,0,0,1.63-5.37,7.42,7.42,0,0,0-2-5.17A6.16,6.16,0,0,0,83.71,151.68Z"/></g></g></svg>