<svg xmlns="http://www.w3.org/2000/svg" viewBox="0 0 190.97 190.97"><defs><style>.cls-1{fill:none;stroke:#00a651;stroke-miterlimit:10;stroke-width:2px;}.cls-2{fill:#00013f;}.cls-3{fill:#17004a;}.cls-4{fill:#00c927;}</style></defs><g id="Layer_2" data-name="Layer 2"><g id="Layer_1-2" data-name="Layer 1"><circle class="cls-1" cx="95.48" cy="95.48" r="94.48"/><path class="cls-2" d="M139.52,102.35c-1.21-1.14-1.94-1.85-2.18-2.14.46-1.11.91-2.2,1.37-3.29a10.21,10.21,0,0,0,.94-3.59A2.56,2.56,0,0,0,138.43,91a7.34,7.34,0,0,0-3.27-1.17c-1,0-1.71.79-2.15,2.39-.27,1.21-.54,2.43-.81,3.67a5.67,5.67,0,0,0-.41,1.91,2.81,2.81,0,0,0,.57,1.67c.38.53.74,1,1.1,1.47-1,4-3.44,9.79-7.45,17.57-.72,1.39-1.34,2.09-1.85,2.09s-.85-.59-1.14-1.78a50.51,50.51,0,0,1-1.63-12.33,39.87,39.87,0,0,1,.38-5.55,23.59,23.59,0,0,0,3-5.85,10.87,10.87,0,0,0,.65-2.15q0-.65-1.14-1.41a6.26,6.26,0,0,0-3-1.42c-.78,0-1.5.58-2.15,1.74a15.12,15.12,0,0,0-1.7,4.77c-.2,1.11-.43,2.94-.63,5.5q-2.67,6.87-10.08,14.16a78.27,78.27,0,0,0,2.79-22.13,16.78,16.78,0,0,0-.13-2.79.83.83,0,0,0-.88-.77,5.28,5.28,0,0,0-1.13.16c-1.87.46-2.89.74-3.08.82a3.82,3.82,0,0,0-1.89,1.86q-1.44,2.25-2.47,3.7l-.23-.3a19.94,19.94,0,0,0-1.8-1.9A16.74,16.74,0,0,0,86.18,90.3q-8.37,0-12.8,4.64A15.09,15.09,0,0,0,69,105.71a13.64,13.64,0,0,0,5,10.77,16.91,16.91,0,0,0,11.35,4.32c5.34,0,9.59-1.41,12.78-4.25a14,14,0,0,0,4.77-11,12.94,12.94,0,0,0-1.82-6.72,46.84,46.84,0,0,1,3-3.62,16.76,16.76,0,0,1,.28,3.44,68.86,68.86,0,0,1-1,10.56A63.66,63.66,0,0,1,101,119.49c-1.11.85-1.66,1.47-1.66,1.87s.21.55.61.84c1.61,1.24,2.8,1.86,3.56,1.86a1.5,1.5,0,0,0,1.36-.76q1-1.42,5.39-6.72c3.11-3.69,5.31-6.49,6.63-8.37a51.05,51.05,0,0,0,1.82,11.93,5.62,5.62,0,0,0,.94,2.27,6.77,6.77,0,0,0,2.3,1,13.21,13.21,0,0,0,2.83.69c1,0,1.91-.65,2.83-2q3.61-5,8.7-19a7.43,7.43,0,0,1,1.09.64,6.11,6.11,0,0,0,1.62.89c.73,0,1.09-.4,1.09-1.21A1.55,1.55,0,0,0,139.52,102.35ZM93.65,113.88a9.13,9.13,0,0,1-7.43,3.36A9.37,9.37,0,0,1,78.9,114C77,111.85,76,108.93,76,105.23A12.52,12.52,0,0,1,78.63,97a8.85,8.85,0,0,1,7.27-3.17,9.74,9.74,0,0,1,7.54,3.23,11.75,11.75,0,0,1,3,8.29A12.85,12.85,0,0,1,93.65,113.88Z"/><path class="cls-3" d="M168.88,47.75a5.31,5.31,0,0,0-.78-2.9,5.53,5.53,0,0,1-.78-1.45v-.22c.15-.9.22-1.42.22-1.57,0-.44-.57-1.13-1.72-2.06s-1.72-1.47-1.72-1.62V37a9.66,9.66,0,0,1-1.34-2.57,27.71,27.71,0,0,0-3-1.78l-.89-1.9A19.12,19.12,0,0,0,155.65,29l-.89.45-3.23-1.56a12.22,12.22,0,0,0-2.24-1.34h-.22a10.13,10.13,0,0,0-1.67.45,28.21,28.21,0,0,1-4-2.13l-1.23.23a4.71,4.71,0,0,0-1.34-.67l-2,.22L134,23.54h-1.45a5.85,5.85,0,0,1-1.79.22.64.64,0,0,1-.45-.22,6.83,6.83,0,0,0-1.67-.23h-.89a13.69,13.69,0,0,1-2,.23l-1.12-.23-2.12.9a5.26,5.26,0,0,0-3.9-1.57,7.68,7.68,0,0,0-2.68,1.12l-5-1.12h-.67c-3.87.9-6,1.34-6.25,1.34a3.21,3.21,0,0,1-1.45-.67,3.32,3.32,0,0,0-1.68-.67,12.93,12.93,0,0,0-1.39.23,27.71,27.71,0,0,1-3.68.33,46,46,0,0,0-7.37,1.23,36,36,0,0,1-7,1.11l-1.9-.22a12.81,12.81,0,0,1-2.9,1l-2.12.44H72.74a4.41,4.41,0,0,0-1.5.67,1.93,1.93,0,0,1-1.06.45l-1.79-.67-5.91,1.56h-.56c-1.34-.3-2.2-.11-2.57.56a2.09,2.09,0,0,1-2,1,2.54,2.54,0,0,1-1.78-.89,27.07,27.07,0,0,0-8.09,1.95A42.49,42.49,0,0,1,38.76,34a20.2,20.2,0,0,0-9.71,4.74C26.64,41,25.43,43,25.43,44.52q0,6.69,7,6.69A9.83,9.83,0,0,0,38,49.31q2.79-1.89,3.12-3.79l.22-1.23,1.9-.89A7.41,7.41,0,0,0,46,40.72c1.34-.59,2.71-1.15,4.13-1.67.89-1,1.49-1.57,1.78-1.57l1.68.45h.22c.3,0,.45-.07.45-.22.89-1.41,1.48-2.12,1.78-2.12l1.34.33L59,35.59a1.89,1.89,0,0,1,.78.39,1.79,1.79,0,0,0,1,.39h.45l2.34-1.67,2.68.22,1.9-.45,2.45.23a4,4,0,0,0,1.29-.34A3.79,3.79,0,0,1,73.19,34l1.11.22h.23l6.13-1.12,1.68.45a.9.9,0,0,0,.22-.67,18.25,18.25,0,0,0,2,.45H85l.67-.23,3.46.45a9.22,9.22,0,0,0,4.57-1.34,5.41,5.41,0,0,0,1.62.89,2.07,2.07,0,0,1,1.06.67,1,1,0,0,0,.78.45l8.93-.89a2.73,2.73,0,0,1,1.34.67l3-.45,2,.89,2-.44c.67.59,1.15.89,1.45.89l2-.45h3.68a7.39,7.39,0,0,0,1.79,1.12h1.89a2.48,2.48,0,0,0,1.12-.23l1.11-.22c.3,0,.67.26,1.12.78l.78.23h1.79l3,1.33a15.87,15.87,0,0,0,2.45,1.12,3.94,3.94,0,0,0,1.12-.45,12,12,0,0,0,4.41,2.29,14.15,14.15,0,0,1,3.63,1.4l1.33-.45a12.31,12.31,0,0,0,2.57,2.07,7.4,7.4,0,0,1,1.56,1.06c1.12,0,1.68.07,1.68.22,1.19,1.86,1.85,2.86,2,3-1.05,4.47-3,7.14-5.71,8l-6.71,2q-5.92,1.91-7,2.91a9.07,9.07,0,0,1-3,1.67q-6.82,1.11-6.82,2.12a.9.9,0,0,0,.22.67l-1.79-.22a7.78,7.78,0,0,0-2.18.5,2.26,2.26,0,0,0-1.73,1.73,1.08,1.08,0,0,1-.84-.56,1.08,1.08,0,0,0-.84-.56c-2.09,0-3.17.49-3.24,1.45S114.76,69,113.94,69h-.44a2.59,2.59,0,0,0-.9-.89l-1.34.22h-.67c-1.86.3-3,.45-3.24.45l-6.83,1.9H98.4l-7,2.23c-4.48.22-7,1.15-7.61,2.79L81,76.32l.56-.89L82,73.31l3-8.49c1-3,2-5,3-5.91s1.45-2.79,1.45-5.69a6.64,6.64,0,0,0-1.22-3.29,11.3,11.3,0,0,1-1.45-2.85q-.22-.88-3.57-2.84c-2.23-1.3-3.71-2-4.45-2q-6.12,0-6.12,4.36a7,7,0,0,0,1.56,4.57c-.6.6-.89,1-.89,1.34l1.11,3a7.18,7.18,0,0,1-1.78.45c-.3,0-.82,1.25-1.56,3.74A21.41,21.41,0,0,1,68.9,65.1c-.7,1.08-1.13,1.77-1.28,2.07a62.41,62.41,0,0,1-3,6.92q-1.11.66-2.51,4.85t-3.34,4.58a29.47,29.47,0,0,0-3.29.83l-1.56,1.34-1.9.45a15,15,0,0,1-4.07,1.56q-2.05.45-8,4t-5.91,5.86q0,4.35,5.91,7.81l.45,1.12c.14.82.91,1.67,2.28,2.57s2.07,1.78,2.07,2.67a4.94,4.94,0,0,1-1.4,2.46,10.64,10.64,0,0,0-2.06,4.18,14.4,14.4,0,0,1-1.23,3.41l-2.9,4.35-5.9,11.27q-2.79,5.69-2.79,6.36L28,146.29a10.45,10.45,0,0,0-.67,2.9A5.12,5.12,0,0,0,28.43,152a11.43,11.43,0,0,1,1.28,2.23c1.4,4.09,3.2,6.27,5.38,6.53a16.36,16.36,0,0,1,4.16.83l2.22-.22c1.48,0,2.33-1,2.56-3l.66-7,.89-4.13,5-11.38q.45-3.47,2.13-4.8a4.79,4.79,0,0,1,1.56-3.46l.44-.67a5.33,5.33,0,0,1,1.34-1.79A8.18,8.18,0,0,0,57.75,123c1.34.75,2,1.38,2.12,1.9s.65,1.25,1.73,2.18a37.35,37.35,0,0,1,3.07,3.09L65,130a25.59,25.59,0,0,1,4.42-3.33l.42-.26c.82-.47,1.66-.9,2.53-1.29l-9.19-7.81q-3-1.56-3-3.23a5.48,5.48,0,0,1,1.12-2.35l2.57-4.79a13.47,13.47,0,0,0,2-2l.22-1.34a14.86,14.86,0,0,0,2-3.91,7.08,7.08,0,0,1,1.23-2.51,5.66,5.66,0,0,0,1.12-1.95c.3-.82.71-1.86,1.23-3.13l1.12-1.56c.07-.37.82-.84,2.24-1.39s2.12-.95,2.12-1.18l2.68.79a5.39,5.39,0,0,0,2.46-1.62,6.22,6.22,0,0,1,1.68-1.62,1.28,1.28,0,0,0,.89.45,2.54,2.54,0,0,0,1.68.89,5.16,5.16,0,0,0,2.74-1.12,5.62,5.62,0,0,1,3.18-1.11l.23-.67,2.23.67,3.91-1.68a5.7,5.7,0,0,1,1.9.78,23.22,23.22,0,0,1,3.58-1l2.12-1.79L107.74,82a2.26,2.26,0,0,0,1.39-.56,4.51,4.51,0,0,1,1.62-.78l1.57.45a1.77,1.77,0,0,0,1.12.22.92.92,0,0,0,.67-.22l3-1.56a4.47,4.47,0,0,0,2.24-.51,9.45,9.45,0,0,1,2.79-.83l4.14-.79,1.79.23,2.23-.56a27.36,27.36,0,0,1,4.48-.78,6.54,6.54,0,0,0,5.92-3.24l1.34.45L154,70a4.42,4.42,0,0,0,3.19-1.4,7.93,7.93,0,0,1,3-2,4.22,4.22,0,0,0,2.4-2.29A4.39,4.39,0,0,1,164.74,62a2.73,2.73,0,0,0,1.68-1.62,6.05,6.05,0,0,1,1.34-2.18l1.12-7.48-.23-1.45ZM47.79,104.66c-.45,0-1.55-.68-3.3-2.06s-2.62-2.21-2.62-2.51.58-.88,1.73-1.73A5.38,5.38,0,0,1,46,97.08h2.79c0-.15.45-.6,1.34-1.34l1.34.22,1.11-.45Q49.79,104.66,47.79,104.66Z"/><path class="cls-4" d="M94.55,158.8a8.88,8.88,0,0,0-3.28-6.62,10.56,10.56,0,0,0-7.43-2.74c-3.5.09-6.16,1.1-8,3.09a9.48,9.48,0,0,0-2.64,6.82,8.53,8.53,0,0,0,3.3,6.7,10.61,10.61,0,0,0,7.2,2.56,11.54,11.54,0,0,0,8-2.84A8.83,8.83,0,0,0,94.55,158.8Zm-10.32,7.57a5.84,5.84,0,0,1-4.64-1.94A7.93,7.93,0,0,1,77.67,159a7.84,7.84,0,0,1,1.52-5.19,5.57,5.57,0,0,1,4.52-2.1,6.16,6.16,0,0,1,4.79,1.94,7.47,7.47,0,0,1,2,5.17,8.14,8.14,0,0,1-1.64,5.37A5.72,5.72,0,0,1,84.23,166.37Z"/><path class="cls-4" d="M120.06,165.83a.55.55,0,0,0-.21-.45,5.69,5.69,0,0,0-1.53-.63,3,3,0,0,1-1.86-1.45,4.86,4.86,0,0,1-.56-2.27l-.53-24.27c0-.52,0-1.13-.07-1.8s0-1.57-.07-2.68a3,3,0,0,0-.33-1.43,1.33,1.33,0,0,0-1.24-.49,7.65,7.65,0,0,0-1,.11,14.32,14.32,0,0,1-2,.15,11.2,11.2,0,0,1-1.49-.09,10.51,10.51,0,0,0-1.2-.11,1.91,1.91,0,0,0-1.06.28.68.68,0,0,0-.37.58.75.75,0,0,0,.33.66,8.42,8.42,0,0,0,1.66.58,4.5,4.5,0,0,1,2.09,1.17,4.64,4.64,0,0,1,.77,2.91l.47,21.84a13,13,0,0,1-.44,4.29,4.2,4.2,0,0,1-2.42,2.28,9.24,9.24,0,0,1-3.43.91,5,5,0,0,1-4.44-2.38,9.05,9.05,0,0,1-1.73-4.95,7.76,7.76,0,0,1,1.67-5.15,5.46,5.46,0,0,1,4.29-2.22,6.32,6.32,0,0,1,2.57.57,6,6,0,0,0,1.76.58.78.78,0,0,0,.54-.23.69.69,0,0,0,.23-.56c0-.68-.63-1.31-1.84-1.85a8.22,8.22,0,0,0-3.51-.76,10.17,10.17,0,0,0-7,2.9,9.12,9.12,0,0,0,.25,13.56,9.54,9.54,0,0,0,6.82,2.73,13.76,13.76,0,0,0,6.45-2.33l.4-.17c.08,0,.15.11.18.37a1.19,1.19,0,0,0,.38.72,1,1,0,0,0,.82.33,6.78,6.78,0,0,0,1.12-.21,6,6,0,0,1,1.6-.24,5.81,5.81,0,0,1,1.79.16,4,4,0,0,0,1.08.17C119.7,167,120.08,166.57,120.06,165.83Z"/><path class="cls-4" d="M138,163.88a.81.81,0,0,0-.28-.64A.93.93,0,0,0,137,163a3.47,3.47,0,0,0-1.27.56,10.24,10.24,0,0,1-4.8,1.5,7.75,7.75,0,0,1-5.36-2,6.45,6.45,0,0,1-2.47-4.79,7.13,7.13,0,0,1,2.13-5.72,6.65,6.65,0,0,1,4.3-2.11,5.82,5.82,0,0,1,4.61,1.6,5.35,5.35,0,0,1,1.58,3.59,1,1,0,0,1-.18.74,1.21,1.21,0,0,1-.79.21l-8.1.18c-1,0-1.47.37-1.45,1s.49,1.05,1.44,1l11.65-.25a3.76,3.76,0,0,0,1.48-.23c.27-.13.4-.47.39-1a9,9,0,0,0-2.78-6.45c-1.8-1.77-4.48-2.62-8-2.54a11.27,11.27,0,0,0-7.31,2.85,8.15,8.15,0,0,0-3.16,6.56A9.79,9.79,0,0,0,122,164.8a10.11,10.11,0,0,0,7.47,2.84,13.44,13.44,0,0,0,5.75-1.45C137.11,165.28,138,164.5,138,163.88Z"/><path class="cls-4" d="M149.54,166.45a.92.92,0,0,0-.35-.71,3.31,3.31,0,0,0-1.45-.54,2.64,2.64,0,0,1-1.43-.63,2.52,2.52,0,0,1-.31-1.47,15.76,15.76,0,0,1,1.31-5.87,14,14,0,0,1,4.55-6.06,5.57,5.57,0,0,0,1-1,1.58,1.58,0,0,0,.28-1.07.82.82,0,0,0-.45-.68,2.33,2.33,0,0,0-1.33-.28,3.11,3.11,0,0,0-2.15,1.07,11.44,11.44,0,0,0-2,3.48,12.11,12.11,0,0,1-1.14,2.43l-.12-.71,0-1.25c-.05-1.94-.52-2.9-1.44-2.88a7.47,7.47,0,0,0-1.36.13,5.76,5.76,0,0,1-.83.12,9.57,9.57,0,0,1-1.09-.1,5.63,5.63,0,0,0-1.11-.11c-.79,0-1.19.3-1.18.87a.87.87,0,0,0,.2.53,3.59,3.59,0,0,0,1.24.51,2.24,2.24,0,0,1,1.39.87,2.63,2.63,0,0,1,.37,1.31l.16,7.69a6.11,6.11,0,0,1-.19,2.4,3,3,0,0,1-1.36.78,4.3,4.3,0,0,0-1.35.65.8.8,0,0,0-.23.56.78.78,0,0,0,.45.68,2.35,2.35,0,0,0,1.14.25,10.56,10.56,0,0,0,1.27-.27,9.59,9.59,0,0,1,2-.26,14.71,14.71,0,0,1,2.72.17,12.22,12.22,0,0,0,2,.18C149.26,167.21,149.56,167,149.54,166.45Z"/><path class="cls-4" d="M109.24,170.39c0,.94-1.07,2.42-3.21,4.47a27.7,27.7,0,0,1-8.42,5.26,28.2,28.2,0,0,1-11,2.21,31.33,31.33,0,0,1-16.28-4.06,27,27,0,0,1-10.61-11.33A33.1,33.1,0,0,1,56,151.81a31.22,31.22,0,0,1,3.57-14.71,26.92,26.92,0,0,1,4-5.76c.44-.47.89-.93,1.37-1.38a25.59,25.59,0,0,1,4.42-3.33l.42-.26c.82-.47,1.66-.9,2.53-1.29A31.33,31.33,0,0,1,85.2,122.5a35.14,35.14,0,0,1,10.35,1.43c.46.14.91.29,1.34.44a21.75,21.75,0,0,1,6.15,3.1c1.56,1.17,2.46,2.11,2.69,2.81a1,1,0,0,1,.06.34.34.34,0,0,1,0,.1c0,.82,0,1.57,0,2.26l0,.67c0,.6-.06,1-.07,1.32s0,.26,0,.33a5.74,5.74,0,0,0,.29,1.45,7.48,7.48,0,0,1,.28,1.83c0,.88-.54,1.32-1.64,1.32a1.58,1.58,0,0,1-1-.47,10.32,10.32,0,0,1-1.53-2.7,19.93,19.93,0,0,0-4.58-6.81,13.81,13.81,0,0,0-1.19-.91q-4.11-2.8-10.79-2.79a19.13,19.13,0,0,0-11.81,3.63,18.45,18.45,0,0,0-3.58,3.59,20.65,20.65,0,0,0-1.59,2.39q-3.92,6.63-3.89,16.2,0,12.39,6,19.57t16.11,7.15A30.83,30.83,0,0,0,94.86,177a29.63,29.63,0,0,0,11-6.8,3.39,3.39,0,0,1,1.86-1.09,1.41,1.41,0,0,1,1.05.46A1.26,1.26,0,0,1,109.24,170.39Z"/></g></g></svg>